<?xml version="1.0" encoding="UTF-8" standalone="no"?>
<svg xmlns:dc="http://purl.org/dc/elements/1.1/" xmlns:cc="http://creativecommons.org/ns#" xmlns:rdf="http://www.w3.org/1999/02/22-rdf-syntax-ns#" xmlns:svg="http://www.w3.org/2000/svg" xmlns="http://www.w3.org/2000/svg" xmlns:sodipodi="http://sodipodi.sourceforge.net/DTD/sodipodi-0.dtd" xmlns:inkscape="http://www.inkscape.org/namespaces/inkscape" version="1.1" x="0px" y="0px" viewBox="0 0 327.68026 120.53349" xml:space="preserve" id="svg52" sodipodi:docname="Airservices_Master_Logo_DigitalRGB.svg" width="327.68027" height="120.53349" inkscape:version="1.0.2 (e86c870879, 2021-01-15)"><metadata id="metadata58"></metadata><defs id="defs56"></defs>
<style type="text/css" id="style2">
	.st0{fill:none;}
	.st1{fill:#ffffff;}
	.st2{fill:#ffffff;}
	.st3{fill:none;stroke:#231F20;stroke-width:0.1;stroke-miterlimit:10;}
</style>
<g id="Clearspace" transform="translate(-29.98,-30.066944)">
	<rect class="st0" width="387.79001" height="180.75" id="rect4" x="0" y="0"></rect>
</g>
<g id="Logo" transform="translate(-29.98,-30.066944)">
	<path class="st1" d="m 59.84,78.9 c 0,-1.85 1.57,-3.47 3.47,-3.47 1.9,0 3.47,1.62 3.47,3.47 0,1.9 -1.57,3.47 -3.47,3.47 -1.9,0 -3.47,-1.57 -3.47,-3.47 m 2.47,14 h -5.37 v -4.03 h 9.91 v 28.61 h -4.54 z" id="path7"></path>
	<path class="st1" d="m 87.95,88.87 v 4.76 h -3.36 c -4.14,0 -5.94,2.63 -5.94,8.06 v 15.79 H 74.06 V 88.87 h 4.36 v 4.14 h 0.68 c 0.9,-2.57 3.24,-4.14 6.38,-4.14 z" id="path9"></path>
	<path class="st1" d="m 90.69,108.52 h 4.54 c 0.67,3.53 3.8,5.83 8.11,5.83 4.04,0 6.61,-1.91 6.61,-4.87 0,-2.41 -1.63,-3.75 -5.1,-4.2 l -4.87,-0.67 c -5.82,-0.78 -8.5,-3.42 -8.5,-7.67 0,-5.32 4.2,-8.85 10.41,-8.85 6.27,0 10.87,3.52 11.64,8.85 h -4.42 c -0.56,-3.08 -3.31,-5.04 -7.17,-5.04 -3.7,0 -6.05,1.79 -6.05,4.64 0,2.41 1.8,3.7 5.04,4.15 l 4.82,0.67 c 5.99,0.79 8.68,3.42 8.68,7.72 0,5.49 -4.48,9.13 -11.14,9.13 -6.78,0 -11.82,-3.86 -12.6,-9.69" id="path11"></path>
	<path class="st1" d="m 122.9,101.58 h 18.7 c -0.56,-5.88 -4.03,-9.52 -9.35,-9.52 -5.26,0 -8.79,3.64 -9.35,9.52 m 23.19,3.02 H 122.9 c 0.51,5.99 4.32,9.69 9.8,9.69 4.03,0 7.22,-2.02 8.51,-5.15 h 4.42 c -1.52,5.32 -6.56,9.07 -13.16,9.07 -8.29,0 -14,-5.99 -14,-15.06 0,-9.01 5.54,-15.06 13.77,-15.06 8.29,0 13.83,6.05 13.83,15.06 v 1.45 z" id="path13"></path>
	<path class="st1" d="m 165.15,88.87 v 4.76 h -3.36 c -4.14,0 -5.93,2.63 -5.93,8.06 v 15.79 h -4.59 V 88.87 h 4.36 v 4.14 h 0.68 c 0.9,-2.57 3.24,-4.14 6.38,-4.14 z" id="path15"></path>
	<polygon class="st1" points="195.91,88.87 185.27,117.48 178.95,117.48 168.31,88.87 173.63,88.87 181.69,112.33 182.64,112.33 190.71,88.87 " id="polygon17"></polygon>
	<path class="st1" d="m 201.98,78.9 c 0,-1.85 1.57,-3.47 3.47,-3.47 1.9,0 3.47,1.62 3.47,3.47 0,1.9 -1.57,3.47 -3.47,3.47 -1.9,0 -3.47,-1.57 -3.47,-3.47 m 2.47,14 h -5.37 v -4.03 h 9.91 v 28.61 h -4.54 z" id="path19"></path>
	<path class="st1" d="m 214.22,103.15 c 0,-9.01 5.54,-15.06 13.94,-15.06 6.83,0 12.15,4.09 13.27,10.25 h -4.81 c -0.79,-3.59 -4.2,-5.94 -8.4,-5.94 -5.65,0 -9.29,4.31 -9.29,10.75 0,6.49 3.64,10.81 9.29,10.81 4.2,0 7.62,-2.35 8.4,-5.94 h 4.81 c -1.12,6.1 -6.44,10.19 -13.27,10.19 -8.4,0 -13.94,-5.99 -13.94,-15.06" id="path21"></path>
	<path class="st1" d="m 249.99,101.58 h 18.71 c -0.56,-5.88 -4.04,-9.52 -9.36,-9.52 -5.26,0 -8.78,3.64 -9.35,9.52 m 23.19,3.02 h -23.19 c 0.51,5.99 4.32,9.69 9.8,9.69 4.03,0 7.22,-2.02 8.51,-5.15 h 4.42 c -1.51,5.32 -6.56,9.07 -13.16,9.07 -8.29,0 -14,-5.99 -14,-15.06 0,-9.01 5.54,-15.06 13.77,-15.06 8.29,0 13.83,6.05 13.83,15.06 v 1.45 z" id="path23"></path>
	<path class="st1" d="m 277.19,108.52 h 4.54 c 0.67,3.53 3.81,5.83 8.12,5.83 4.03,0 6.61,-1.91 6.61,-4.87 0,-2.41 -1.63,-3.75 -5.1,-4.2 l -4.87,-0.67 c -5.82,-0.78 -8.5,-3.42 -8.5,-7.67 0,-5.32 4.2,-8.85 10.41,-8.85 6.27,0 10.87,3.52 11.65,8.85 h -4.43 c -0.56,-3.08 -3.31,-5.04 -7.17,-5.04 -3.7,0 -6.05,1.79 -6.05,4.64 0,2.41 1.8,3.7 5.04,4.15 l 4.82,0.67 c 5.99,0.79 8.68,3.42 8.68,7.72 0,5.49 -4.47,9.13 -11.14,9.13 -6.79,0 -11.83,-3.86 -12.61,-9.69" id="path25"></path>
	<path class="st1" d="m 195.19,129.82 v 19.63 h -3 v -3.35 h -0.46 c -1.19,2.39 -3.53,3.85 -6.22,3.85 -4,0 -6.84,-2.88 -6.84,-7.26 v -12.87 h 3.15 v 11.48 c 0,3.35 1.89,5.61 4.76,5.61 3.08,0 5.3,-2.61 5.45,-6.68 v -10.41 z" id="path27"></path>
	<path class="st1" d="m 198.71,143.31 h 3.11 c 0.46,2.42 2.61,4 5.57,4 2.76,0 4.53,-1.31 4.53,-3.34 0,-1.65 -1.11,-2.57 -3.49,-2.88 l -3.35,-0.46 c -3.99,-0.54 -5.84,-2.35 -5.84,-5.27 0,-3.65 2.88,-6.07 7.15,-6.07 4.3,0 7.46,2.42 7.99,6.07 h -3.03 c -0.38,-2.11 -2.27,-3.45 -4.92,-3.45 -2.54,0 -4.16,1.22 -4.16,3.19 0,1.65 1.23,2.53 3.46,2.84 l 3.31,0.46 c 4.11,0.54 5.96,2.35 5.96,5.3 0,3.77 -3.08,6.27 -7.65,6.27 -4.64,-0.01 -8.1,-2.67 -8.64,-6.66" id="path29"></path>
	<path class="st1" d="m 223.61,132.59 v 13.14 c 0,0.61 0.31,0.92 0.92,0.92 h 3.61 v 2.81 h -4.3 c -2.3,0 -3.38,-1.07 -3.38,-3.38 v -13.49 h -3.92 v -2.76 h 3.96 v -5 h 3.11 v 5 h 4.53 v 2.76 z" id="path31"></path>
	<path class="st1" d="m 241.36,129.82 v 3.26 h -2.3 c -2.85,0 -4.07,1.81 -4.07,5.53 v 10.84 h -3.15 v -19.63 h 3 v 2.84 h 0.46 c 0.61,-1.76 2.23,-2.84 4.38,-2.84 z" id="path33"></path>
	<path class="st1" d="m 256.22,140.47 v -0.58 c -6.88,0.12 -9.94,1.54 -9.94,4.46 0,1.96 1.38,3.03 3.8,3.03 3.76,0 6.14,-2.69 6.14,-6.91 m 3.15,-3.46 v 12.45 h -3.04 v -3.15 h -0.42 c -1.42,2.3 -3.84,3.65 -6.91,3.65 -3.58,0 -5.81,-1.84 -5.81,-5.22 0,-4.46 3.89,-6.69 13.02,-6.8 v -0.7 c 0,-3.19 -1.84,-5.23 -4.76,-5.23 -2.45,0 -4.37,1.46 -4.72,3.76 h -3.15 c 0.7,-4.15 3.92,-6.49 8.14,-6.49 4.74,0 7.65,2.97 7.65,7.73" id="path35"></path>
	<path class="st1" d="m 264.01,146.08 v -24.94 h 3.15 v 24.59 c 0,0.62 0.31,0.93 0.92,0.93 h 2.46 v 2.8 h -3.15 c -2.3,0 -3.38,-1.08 -3.38,-3.38" id="path37"></path>
	<path class="st1" d="m 273.43,122.98 c 0,-1.27 1.08,-2.38 2.38,-2.38 1.31,0 2.39,1.11 2.39,2.38 0,1.31 -1.08,2.38 -2.39,2.38 -1.31,0 -2.38,-1.07 -2.38,-2.38 m 1.69,9.61 h -3.69 v -2.76 h 6.8 v 19.63 h -3.11 z" id="path39"></path>
	<path class="st1" d="m 295.28,140.47 v -0.58 c -6.88,0.12 -9.94,1.54 -9.94,4.46 0,1.96 1.38,3.03 3.8,3.03 3.76,0 6.14,-2.69 6.14,-6.91 m 3.16,-3.46 v 12.45 h -3.04 v -3.15 h -0.42 c -1.42,2.3 -3.84,3.65 -6.91,3.65 -3.58,0 -5.81,-1.84 -5.81,-5.22 0,-4.46 3.89,-6.69 13.02,-6.8 v -0.7 c 0,-3.19 -1.84,-5.23 -4.76,-5.23 -2.45,0 -4.37,1.46 -4.72,3.76 h -3.15 c 0.7,-4.15 3.92,-6.49 8.14,-6.49 4.73,0 7.65,2.97 7.65,7.73" id="path41"></path>
	<path class="st1" d="m 171.69,140.47 v -0.58 c -6.88,0.12 -9.94,1.54 -9.94,4.46 0,1.96 1.38,3.03 3.8,3.03 3.76,0 6.14,-2.69 6.14,-6.91 m 3.15,-3.46 v 12.45 h -3.04 v -3.15 h -0.42 c -1.42,2.3 -3.84,3.65 -6.91,3.65 -3.58,0 -5.81,-1.84 -5.81,-5.22 0,-4.46 3.89,-6.69 13.02,-6.8 v -0.7 c 0,-3.19 -1.84,-5.23 -4.76,-5.23 -2.46,0 -4.38,1.46 -4.73,3.76 h -3.15 c 0.7,-4.15 3.92,-6.49 8.14,-6.49 4.74,0 7.66,2.97 7.66,7.73" id="path43"></path>
	<path class="st1" d="m 48.95,104.39 v -0.85 c -10.02,0.18 -14.49,2.24 -14.49,6.49 0,2.86 2.01,4.42 5.54,4.42 5.48,0 8.95,-3.91 8.95,-10.06 m 4.6,-5.05 v 18.14 h -4.42 v -4.6 h -0.62 c -2.07,3.35 -5.6,5.32 -10.07,5.32 -5.21,0 -8.46,-2.69 -8.46,-7.61 0,-6.5 5.66,-9.74 18.97,-9.91 v -1.01 c 0,-4.65 -2.68,-7.62 -6.93,-7.62 -3.58,0 -6.38,2.13 -6.89,5.48 h -4.59 c 1.01,-6.04 5.71,-9.46 11.87,-9.46 6.89,0.02 11.14,4.34 11.14,11.27" id="path45"></path>
	<path class="st2" d="M 345.9,39.5 C 324.62,19.55 257.73,35 221.1,51.24 c -5.33,2.36 -4.93,3.83 0.86,3.07 0.59,-0.08 1.17,-0.14 1.75,-0.2 27.19,-3 54.4,2.65 75.58,15.88 l 5.55,0.83 1.93,-11.47 5.82,10.06 10.17,-5.64 -4.24,10.83 10.75,4.43 -11.11,3.44 1.6,5.53 c 12.65,16.16 19.78,38.29 20.95,57.33 0.04,0.68 0.08,1.36 0.11,2.05 0.16,4.08 1.63,4.32 3.11,0.51 10.43,-26.82 23.84,-87.9 1.97,-108.39 z" id="path47"></path>
	<path class="st3" d="M 307.74,74.35" id="path49"></path>
</g>
</svg>
